# Blender 3.5.0
# www.blender.org
mtllib cube1.mtl
o obj_0
v 15.000000 -9.999998 20.000000
v 15.000000 -10.000000 0.000001
v -5.000000 -10.000000 0.000001
v -5.000000 -9.999998 20.000000
v 15.000000 -29.999998 20.000002
v 15.000000 -30.000000 0.000002
v -5.000000 -30.000000 0.000002
v -5.000000 -29.999998 20.000002
vn -0.0000 1.0000 -0.0000
vn 1.0000 -0.0000 -0.0000
vn -1.0000 -0.0000 -0.0000
vn -0.0000 -0.0000 1.0000
vn -0.0000 -1.0000 -0.0000
vn -0.0000 -0.0000 -1.0000
s 0
usemtl color_15277357.001
f 1//1 2//1 3//1
f 1//1 3//1 4//1
f 5//2 6//2 2//2
f 5//2 2//2 1//2
f 4//3 3//3 7//3
f 4//3 7//3 8//3
f 1//4 4//4 8//4
f 1//4 8//4 5//4
f 8//5 7//5 6//5
f 8//5 6//5 5//5
f 6//6 7//6 3//6
f 6//6 3//6 2//6
